<svg xmlns="http://www.w3.org/2000/svg" version="1.1" xmlns:xlink="http://www.w3.org/1999/xlink" xmlns:svgjs="http://svgjs.dev/svgjs" width="1000" height="1000" viewBox="0 0 1000 1000"><rect width="1000" height="1000" fill="#000000"></rect><g transform="matrix(0.7,0,0,0.7,149.5757575757575,379.6138453155459)"><svg viewBox="0 0 396 137" data-background-color="#ffffff" preserveAspectRatio="xMidYMid meet" height="345" width="1000" xmlns="http://www.w3.org/2000/svg" xmlns:xlink="http://www.w3.org/1999/xlink"><g id="tight-bounds" transform="matrix(1,0,0,1,0.24000000000003752,-0.20640500302189935)"><svg viewBox="0 0 395.5199999999999 137.4128100060438" height="137.4128100060438" width="395.5199999999999"><g><svg viewBox="0 0 658.7591283091558 228.86818097212043" height="137.4128100060438" width="395.5199999999999"><g transform="matrix(1,0,0,1,0,63.352640627911285)"><svg viewBox="0 0 395.52000000000004 102.16289971629786" height="102.16289971629786" width="395.52000000000004"><g id="textblocktransform"><svg viewBox="0 0 395.52000000000004 102.16289971629786" height="102.16289971629786" width="395.52000000000004" id="textblock"><g><rect width="87.40992000000006" height="6.5648509413737415" y="92.78994161387774" fill="#ffffff" data-fill-palette-color="tertiary"></rect></g><g><svg viewBox="0 0 395.52000000000004 72.79636078431373" height="72.79636078431373" width="395.52000000000004"><g transform="matrix(1,0,0,1,0,0)"><svg width="395.52000000000004" viewBox="4.5 -34.6 195.63 35.2" height="72.79636078431373" data-palette-color="#000000"><g class="wordmark-text-0" data-fill-palette-color="primary" id="text-0"><path d="M8.65 0L4.5 0 4.5-32.8 13.85-32.8Q16.6-32.8 18.88-32.3 21.15-31.8 22.75-30.68 24.35-29.55 25.25-27.7 26.15-25.85 26.15-23.15L26.15-23.15Q26.15-20.55 25.28-18.65 24.4-16.75 22.8-15.5 21.2-14.25 18.98-13.63 16.75-13 14.05-13L14.05-13 8.65-13 8.65 0ZM8.65-29.45L8.65-16.4 13.55-16.4Q17.85-16.4 19.93-18.03 22-19.65 22-23.15L22-23.15Q22-26.7 19.83-28.08 17.65-29.45 13.35-29.45L13.35-29.45 8.65-29.45ZM38 0.6L38 0.6Q34.95 0.6 32.92-1.2 30.9-3 30.9-6.3L30.9-6.3Q30.9-10.3 34.45-12.43 38-14.55 45.8-15.4L45.8-15.4Q45.8-16.55 45.57-17.65 45.35-18.75 44.8-19.6 44.25-20.45 43.27-20.98 42.3-21.5 40.8-21.5L40.8-21.5Q38.7-21.5 36.85-20.7 35-19.9 33.55-18.9L33.55-18.9 31.95-21.75Q33.65-22.85 36.1-23.88 38.55-24.9 41.5-24.9L41.5-24.9Q45.95-24.9 47.95-22.18 49.95-19.45 49.95-14.9L49.95-14.9 49.95 0 46.55 0 46.2-2.9 46.05-2.9Q44.3-1.45 42.3-0.43 40.3 0.6 38 0.6ZM39.2-2.7L39.2-2.7Q40.95-2.7 42.5-3.53 44.05-4.35 45.8-5.95L45.8-5.95 45.8-12.7Q42.75-12.3 40.67-11.75 38.6-11.2 37.32-10.45 36.05-9.7 35.47-8.72 34.9-7.75 34.9-6.6L34.9-6.6Q34.9-4.5 36.15-3.6 37.4-2.7 39.2-2.7ZM63.95 0.6L63.95 0.6Q61.35 0.6 59-0.35 56.65-1.3 54.9-2.75L54.9-2.75 56.95-5.5Q58.55-4.2 60.22-3.4 61.9-2.6 64.09-2.6L64.09-2.6Q66.5-2.6 67.7-3.7 68.9-4.8 68.9-6.4L68.9-6.4Q68.9-7.35 68.4-8.05 67.9-8.75 67.12-9.28 66.34-9.8 65.34-10.2 64.34-10.6 63.35-11L63.35-11Q62.05-11.45 60.75-12.03 59.45-12.6 58.42-13.43 57.4-14.25 56.75-15.35 56.1-16.45 56.1-18L56.1-18Q56.1-19.45 56.67-20.73 57.25-22 58.32-22.93 59.4-23.85 60.95-24.38 62.5-24.9 64.45-24.9L64.45-24.9Q66.75-24.9 68.67-24.1 70.59-23.3 72-22.15L72-22.15 70.05-19.55Q68.8-20.5 67.45-21.1 66.09-21.7 64.5-21.7L64.5-21.7Q62.2-21.7 61.12-20.65 60.05-19.6 60.05-18.2L60.05-18.2Q60.05-17.35 60.5-16.73 60.95-16.1 61.7-15.63 62.45-15.15 63.42-14.78 64.4-14.4 65.45-14L65.45-14Q66.75-13.5 68.07-12.95 69.4-12.4 70.45-11.58 71.5-10.75 72.17-9.55 72.84-8.35 72.84-6.65L72.84-6.65Q72.84-5.15 72.27-3.85 71.7-2.55 70.57-1.55 69.45-0.55 67.77 0.03 66.09 0.6 63.95 0.6ZM84.89 0.6L84.89 0.6Q82.29 0.6 79.94-0.35 77.59-1.3 75.84-2.75L75.84-2.75 77.89-5.5Q79.49-4.2 81.17-3.4 82.84-2.6 85.04-2.6L85.04-2.6Q87.44-2.6 88.64-3.7 89.84-4.8 89.84-6.4L89.84-6.4Q89.84-7.35 89.34-8.05 88.84-8.75 88.07-9.28 87.29-9.8 86.29-10.2 85.29-10.6 84.29-11L84.29-11Q82.99-11.45 81.69-12.03 80.39-12.6 79.37-13.43 78.34-14.25 77.69-15.35 77.04-16.45 77.04-18L77.04-18Q77.04-19.45 77.62-20.73 78.19-22 79.27-22.93 80.34-23.85 81.89-24.38 83.44-24.9 85.39-24.9L85.39-24.9Q87.69-24.9 89.62-24.1 91.54-23.3 92.94-22.15L92.94-22.15 90.99-19.55Q89.74-20.5 88.39-21.1 87.04-21.7 85.44-21.7L85.44-21.7Q83.14-21.7 82.07-20.65 80.99-19.6 80.99-18.2L80.99-18.2Q80.99-17.35 81.44-16.73 81.89-16.1 82.64-15.63 83.39-15.15 84.37-14.78 85.34-14.4 86.39-14L86.39-14Q87.69-13.5 89.02-12.95 90.34-12.4 91.39-11.58 92.44-10.75 93.12-9.55 93.79-8.35 93.79-6.65L93.79-6.65Q93.79-5.15 93.22-3.85 92.64-2.55 91.52-1.55 90.39-0.55 88.72 0.03 87.04 0.6 84.89 0.6ZM110.89 0L106.69 0 106.69-29.3 96.79-29.3 96.79-32.8 120.79-32.8 120.79-29.3 110.89-29.3 110.89 0ZM130.39 0L126.29 0 126.29-24.3 130.39-24.3 130.39 0ZM128.39-29.3L128.39-29.3Q127.19-29.3 126.36-30.05 125.54-30.8 125.54-31.95L125.54-31.95Q125.54-33.15 126.36-33.88 127.19-34.6 128.39-34.6L128.39-34.6Q129.59-34.6 130.41-33.88 131.24-33.15 131.24-31.95L131.24-31.95Q131.24-30.8 130.41-30.05 129.59-29.3 128.39-29.3ZM146.24 0.6L146.24 0.6Q144.29 0.6 142.96 0 141.64-0.6 140.81-1.65 139.99-2.7 139.64-4.2 139.29-5.7 139.29-7.5L139.29-7.5 139.29-20.95 135.69-20.95 135.69-24.05 139.49-24.3 139.99-31.1 143.44-31.1 143.44-24.3 149.99-24.3 149.99-20.95 143.44-20.95 143.44-7.45Q143.44-5.2 144.26-3.98 145.09-2.75 147.19-2.75L147.19-2.75Q147.84-2.75 148.59-2.95 149.34-3.15 149.94-3.4L149.94-3.4 150.74-0.3Q149.74 0.05 148.56 0.33 147.39 0.6 146.24 0.6ZM161.08 0.6L161.08 0.6Q158.03 0.6 156.01-1.2 153.98-3 153.98-6.3L153.98-6.3Q153.98-10.3 157.53-12.43 161.08-14.55 168.88-15.4L168.88-15.4Q168.88-16.55 168.66-17.65 168.43-18.75 167.88-19.6 167.33-20.45 166.36-20.98 165.38-21.5 163.88-21.5L163.88-21.5Q161.78-21.5 159.93-20.7 158.08-19.9 156.63-18.9L156.63-18.9 155.03-21.75Q156.73-22.85 159.18-23.88 161.63-24.9 164.58-24.9L164.58-24.9Q169.03-24.9 171.03-22.18 173.03-19.45 173.03-14.9L173.03-14.9 173.03 0 169.63 0 169.28-2.9 169.13-2.9Q167.38-1.45 165.38-0.43 163.38 0.6 161.08 0.6ZM162.28-2.7L162.28-2.7Q164.03-2.7 165.58-3.53 167.13-4.35 168.88-5.95L168.88-5.95 168.88-12.7Q165.83-12.3 163.76-11.75 161.68-11.2 160.41-10.45 159.13-9.7 158.56-8.72 157.98-7.75 157.98-6.6L157.98-6.6Q157.98-4.5 159.23-3.6 160.48-2.7 162.28-2.7ZM184.78 0L180.68 0 180.68-24.3 184.08-24.3 184.43-20.8 184.58-20.8Q186.33-22.55 188.26-23.73 190.18-24.9 192.73-24.9L192.73-24.9Q196.58-24.9 198.36-22.5 200.13-20.1 200.13-15.4L200.13-15.4 200.13 0 196.03 0 196.03-14.85Q196.03-18.3 194.93-19.83 193.83-21.35 191.43-21.35L191.43-21.35Q189.53-21.35 188.08-20.4 186.63-19.45 184.78-17.6L184.78-17.6 184.78 0Z" fill="#ffffff" data-fill-palette-color="primary"></path></g></svg></g></svg></g><g transform="matrix(1,0,0,1,87.40992000000006,89.98183445283138)"><svg viewBox="0 0 308.11008 12.18106526346647" height="12.18106526346647" width="308.11008"><g transform="matrix(1,0,0,1,8,0)"><svg width="292.11008" viewBox="2.49 -32.64 999.27 41.67" height="12.18106526346647" data-palette-color="#000000"><path d="M16.46 0.24Q9.33 0.24 5.91-3.52 2.49-7.28 2.49-15.21L2.49-15.21Q2.49-30.66 16.53-30.66L16.53-30.66Q18.58-30.66 20.51-30.24 22.44-29.81 23.63-29.17 24.83-28.54 24.83-27.95L24.83-27.95Q24.83-27.59 24.57-26.98 24.32-26.37 23.97-25.9 23.63-25.44 23.36-25.44L23.36-25.44Q23.24-25.44 22.68-25.76L22.68-25.76Q21.41-26.44 20.02-26.9 18.63-27.37 16.63-27.37L16.63-27.37Q11.38-27.37 8.9-24.45 6.42-21.53 6.42-15.16L6.42-15.16Q6.42-8.94 8.87-5.99 11.33-3.05 16.46-3.05L16.46-3.05Q18.6-3.05 20.14-3.56 21.68-4.08 23.1-4.83L23.1-4.83Q23.78-5.2 23.93-5.2L23.93-5.2Q24.19-5.2 24.55-4.74 24.9-4.27 25.17-3.7 25.44-3.13 25.44-2.88L25.44-2.88Q25.44-2.27 24.21-1.53 22.97-0.78 20.91-0.27 18.85 0.24 16.46 0.24L16.46 0.24ZM39.33 0.24Q34.42 0.24 31.85-2.7 29.27-5.64 29.27-11.25L29.27-11.25Q29.27-16.87 31.88-19.91 34.49-22.95 39.33-22.95L39.33-22.95Q44.11-22.95 46.65-19.93 49.19-16.92 49.19-11.25L49.19-11.25Q49.19-5.62 46.69-2.69 44.19 0.24 39.33 0.24L39.33 0.24ZM39.21-2.88Q42.38-2.88 43.89-4.94 45.41-7.01 45.41-11.33L45.41-11.33Q45.41-15.67 43.89-17.75 42.38-19.82 39.21-19.82L39.21-19.82Q36.06-19.82 34.57-17.76 33.08-15.7 33.08-11.33L33.08-11.33Q33.08-6.98 34.56-4.93 36.03-2.88 39.21-2.88L39.21-2.88ZM57.08 0.07Q56.15 0.07 55.73-0.16 55.32-0.39 55.32-0.88L55.32-0.88 55.32-16.11Q55.32-18.95 55.05-20.2 54.78-21.46 54.78-21.58L54.78-21.58Q54.78-22.12 55.6-22.35 56.42-22.58 57.15-22.58L57.15-22.58Q57.76-22.58 58.05-21.92 58.34-21.26 58.48-20.58 58.61-19.9 58.66-19.7L58.66-19.7Q60.03-21.24 61.82-22.09 63.62-22.95 65.45-22.95L65.45-22.95Q68.77-22.95 70.64-21.08 72.5-19.21 72.5-15.94L72.5-15.94 72.5-0.88Q72.5-0.39 72.09-0.16 71.67 0.07 70.77 0.07L70.77 0.07 70.58 0.07Q69.7 0.07 69.28-0.16 68.87-0.39 68.87-0.88L68.87-0.88 68.87-15.58Q68.87-17.58 67.71-18.69 66.55-19.8 64.45-19.8L64.45-19.8Q62.98-19.8 61.51-18.98 60.03-18.16 58.95-16.75L58.95-16.75 58.95-0.88Q58.95-0.39 58.54-0.16 58.12 0.07 57.25 0.07L57.25 0.07 57.08 0.07ZM94.74 9.03Q93.03 9.03 93.03 8.08L93.03 8.08 93.03-1.95Q91.62-0.88 90.17-0.32 88.71 0.24 86.83 0.24L86.83 0.24Q84.22 0.24 82.23-1.1 80.24-2.44 79.12-5.04 78-7.64 78-11.28L78-11.28Q78-14.7 79.02-17.35 80.05-20 81.96-21.47 83.88-22.95 86.42-22.95L86.42-22.95Q90.23-22.95 93.33-19.7L93.33-19.7Q93.64-21.36 94.04-22.29L94.04-22.29Q94.16-22.56 94.44-22.67 94.72-22.78 95.21-22.78L95.21-22.78 95.38-22.78Q96.67-22.78 96.67-21.83L96.67-21.83 96.67 8.08Q96.67 9.03 94.94 9.03L94.94 9.03 94.74 9.03ZM87.66-2.95Q90.64-2.95 93.03-4.91L93.03-4.91 93.03-16.8Q91.72-18.24 90.17-19.02 88.62-19.8 87.18-19.8L87.18-19.8Q84.59-19.8 83.21-17.52 81.83-15.23 81.83-11.04L81.83-11.04Q81.83-7.13 83.29-5.08 84.76-3.03 87.66-2.95L87.66-2.95ZM110.66 0.24Q107.34 0.24 105.46-1.62 103.58-3.49 103.58-6.79L103.58-6.79 103.58-21.83Q103.58-22.78 105.34-22.78L105.34-22.78 105.51-22.78Q107.24-22.78 107.24-21.83L107.24-21.83 107.24-7.13Q107.24-5.13 108.4-4.02 109.56-2.91 111.66-2.91L111.66-2.91Q113.12-2.91 114.59-3.72 116.05-4.54 117.13-5.96L117.13-5.96 117.13-21.83Q117.13-22.78 118.86-22.78L118.86-22.78 119.03-22.78Q120.79-22.78 120.79-21.83L120.79-21.83 120.79-6.42Q120.79-3.59 121.03-2.33 121.28-1.07 121.28-0.95L121.28-0.95Q121.28-0.42 120.47-0.18 119.67 0.05 118.96 0.05L118.96 0.05Q118.35 0.05 118.06-0.65 117.76-1.34 117.63-2.08 117.49-2.81 117.45-3L117.45-3Q116.08-1.46 114.28-0.61 112.49 0.24 110.66 0.24L110.66 0.24ZM137.54 0.24Q132.14 0.24 129.52-2.58 126.89-5.4 126.89-11.21L126.89-11.21Q126.89-16.97 129.46-19.96 132.02-22.95 137-22.95L137-22.95Q141.44-22.95 143.7-20.07 145.96-17.19 145.96-11.62L145.96-11.62Q145.96-11.38 145.7-10.95 145.45-10.52 145.09-10.19 144.74-9.86 144.49-9.86L144.49-9.86 130.8-9.86Q131.07-6.23 132.67-4.55 134.26-2.88 137.49-2.88L137.49-2.88Q139.29-2.88 140.6-3.32 141.91-3.76 143.13-4.39L143.13-4.39Q143.25-4.44 143.49-4.57 143.74-4.69 143.84-4.69L143.84-4.69Q144.1-4.69 144.46-4.26 144.81-3.83 145.07-3.31 145.32-2.78 145.32-2.54L145.32-2.54Q145.32-2 144.25-1.34 143.18-0.68 141.38-0.22 139.59 0.24 137.54 0.24L137.54 0.24ZM130.8-12.99L142.08-12.99Q142.08-19.82 136.88-19.82L136.88-19.82Q131.29-19.82 130.8-12.99L130.8-12.99ZM153.57 0.07Q152.65 0.07 152.23-0.16 151.82-0.39 151.82-0.88L151.82-0.88 151.82-16.11Q151.82-18.95 151.55-20.2 151.28-21.46 151.28-21.58L151.28-21.58Q151.28-22.12 152.1-22.35 152.91-22.58 153.65-22.58L153.65-22.58Q154.23-22.58 154.53-21.96 154.82-21.34 155.04-20.21L155.04-20.21 155.16-19.7Q157.48-22.95 160.19-22.95L160.19-22.95Q161.44-22.95 162.07-22.5 162.7-22.05 162.7-21.29L162.7-21.29Q162.7-20.56 162.45-19.74 162.19-18.92 161.85-18.92L161.85-18.92Q161.68-18.92 161.24-19.07L161.24-19.07Q160.85-19.24 160.46-19.32 160.07-19.41 159.46-19.41L159.46-19.41Q158.46-19.41 157.57-18.82 156.67-18.24 156.06-17.53 155.45-16.82 155.45-16.75L155.45-16.75 155.45-0.88Q155.45-0.39 155.04-0.16 154.62 0.07 153.74 0.07L153.74 0.07 153.57 0.07ZM190.65 0.24Q183.52 0.24 180.11-3.52 176.69-7.28 176.69-15.21L176.69-15.21Q176.69-30.66 190.73-30.66L190.73-30.66Q192.78-30.66 194.71-30.24 196.64-29.81 197.83-29.17 199.03-28.54 199.03-27.95L199.03-27.95Q199.03-27.59 198.77-26.98 198.52-26.37 198.17-25.9 197.83-25.44 197.56-25.44L197.56-25.44Q197.44-25.44 196.88-25.76L196.88-25.76Q195.61-26.44 194.22-26.9 192.83-27.37 190.82-27.37L190.82-27.37Q185.58-27.37 183.1-24.45 180.62-21.53 180.62-15.16L180.62-15.16Q180.62-8.94 183.07-5.99 185.53-3.05 190.65-3.05L190.65-3.05Q192.8-3.05 194.34-3.56 195.88-4.08 197.29-4.83L197.29-4.83Q197.98-5.2 198.12-5.2L198.12-5.2Q198.39-5.2 198.75-4.74 199.1-4.27 199.37-3.7 199.64-3.13 199.64-2.88L199.64-2.88Q199.64-2.27 198.41-1.53 197.17-0.78 195.11-0.27 193.05 0.24 190.65 0.24L190.65 0.24ZM206.81 0.07Q205.08 0.07 205.08-0.88L205.08-0.88 205.08-31.69Q205.08-32.64 206.81-32.64L206.81-32.64 206.98-32.64Q208.74-32.64 208.74-31.69L208.74-31.69 208.74-19.97Q210.01-21.26 211.72-22.11 213.43-22.95 215.36-22.95L215.36-22.95Q218.09-22.95 220.18-21.41 222.27-19.87 222.27-15.94L222.27-15.94 222.27-0.88Q222.27 0.07 220.53 0.07L220.53 0.07 220.36 0.07Q218.61 0.07 218.61-0.88L218.61-0.88 218.61-15.58Q218.61-17.55 217.48-18.68 216.36-19.8 214.19-19.8L214.19-19.8Q212.75-19.8 211.54-19.12 210.33-18.43 209.54-17.64 208.74-16.85 208.74-16.75L208.74-16.75 208.74-0.88Q208.74 0.07 206.98 0.07L206.98 0.07 206.81 0.07ZM235.16 0.24Q231.84 0.24 229.78-1.39 227.73-3.03 227.73-6.25L227.73-6.25Q227.73-9.64 229.81-11.36 231.88-13.09 234.87-13.59 237.87-14.09 242.14-14.16L242.14-14.16 242.14-16.21Q242.14-17.85 241.03-18.84 239.92-19.82 237.38-19.82L237.38-19.82Q235.45-19.82 234-19.37 232.54-18.92 231.27-18.29L231.27-18.29Q230.74-18.02 230.61-18.02L230.61-18.02Q230.32-18.02 229.97-18.44 229.61-18.87 229.36-19.41 229.1-19.95 229.1-20.19L229.1-20.19Q229.1-20.75 230.26-21.41 231.42-22.07 233.3-22.51 235.18-22.95 237.23-22.95L237.23-22.95Q241.31-22.95 243.55-21.17 245.8-19.38 245.8-16.16L245.8-16.16 245.8-6.42Q245.8-3.59 246.06-2.33 246.31-1.07 246.31-0.95L246.31-0.95Q246.31-0.42 245.5-0.18 244.68 0.05 243.97 0.05L243.97 0.05Q243.38 0.05 243.1-0.61 242.82-1.27 242.55-2.51L242.55-2.51 242.46-3Q241.11-1.51 239.29-0.63 237.48 0.24 235.16 0.24L235.16 0.24ZM235.35-2.91Q237.5-2.91 239.01-3.69 240.53-4.47 242.14-5.91L242.14-5.91 242.14-11.04Q238.92-11.01 236.84-10.77 234.77-10.52 233.2-9.53 231.64-8.54 231.64-6.47L231.64-6.47Q231.64-4.74 232.58-3.82 233.52-2.91 235.35-2.91L235.35-2.91ZM261.72 0.24Q256.81 0.24 254.23-2.7 251.66-5.64 251.66-11.25L251.66-11.25Q251.66-16.87 254.27-19.91 256.88-22.95 261.72-22.95L261.72-22.95Q266.5-22.95 269.04-19.93 271.58-16.92 271.58-11.25L271.58-11.25Q271.58-5.62 269.08-2.69 266.57 0.24 261.72 0.24L261.72 0.24ZM261.59-2.88Q264.77-2.88 266.28-4.94 267.79-7.01 267.79-11.33L267.79-11.33Q267.79-15.67 266.28-17.75 264.77-19.82 261.59-19.82L261.59-19.82Q258.44-19.82 256.95-17.76 255.47-15.7 255.47-11.33L255.47-11.33Q255.47-6.98 256.94-4.93 258.42-2.88 261.59-2.88L261.59-2.88ZM282.39 0.42Q280.56 0.42 278.97-0.05 277.39-0.51 276.45-1.18 275.51-1.86 275.51-2.37L275.51-2.37Q275.51-2.61 275.76-3.15 276.02-3.69 276.37-4.11 276.73-4.54 277.02-4.54L277.02-4.54Q277.09-4.54 277.46-4.3L277.46-4.3Q278.44-3.66 279.52-3.22 280.61-2.78 282.12-2.78L282.12-2.78Q286.37-2.78 286.37-6.3L286.37-6.3Q286.37-7.3 285.97-7.98 285.57-8.67 284.63-9.19 283.69-9.72 282.05-10.21L282.05-10.21Q279.71-10.89 278.4-11.77 277.09-12.65 276.56-13.83 276.02-15.01 276.02-16.7L276.02-16.7Q276.02-18.51 276.94-19.95 277.85-21.39 279.5-22.19 281.15-23 283.22-23L283.22-23Q284.66-23 285.99-22.73 287.32-22.46 288.14-22.03 288.96-21.61 288.96-21.14L288.96-21.14Q288.96-20.8 288.73-20.23 288.5-19.65 288.15-19.23 287.81-18.8 287.54-18.8L287.54-18.8Q287.49-18.8 286.93-19.1 286.37-19.41 285.5-19.67 284.64-19.92 283.59-19.92L283.59-19.92Q281.93-19.92 280.84-19.18 279.76-18.43 279.76-17.19L279.76-17.19Q279.76-15.72 280.54-14.84 281.32-13.96 283.12-13.4L283.12-13.4Q285.91-12.55 287.37-11.69 288.84-10.84 289.46-9.61 290.08-8.37 290.08-6.37L290.08-6.37Q290.08-4.47 289.06-2.92 288.03-1.37 286.27-0.48 284.52 0.42 282.39 0.42L282.39 0.42ZM293.67 5.03Q293.18 5.03 292.8 4.88 292.42 4.74 292.42 4.37L292.42 4.37Q292.42 4.2 292.58 3.85 292.74 3.49 292.79 3.34L292.79 3.34Q293.55 1.88 293.91 0.28 294.28-1.32 294.28-3.3L294.28-3.3Q294.28-3.93 294.72-4.31 295.16-4.69 296.01-4.69L296.01-4.69 296.43-4.69Q297.23-4.69 297.68-4.36 298.14-4.03 298.14-3.49L298.14-3.49Q298.14-1.07 297.36 0.88 296.57 2.83 295.51 3.93 294.45 5.03 293.67 5.03L293.67 5.03ZM327.38 0.24Q320.25 0.24 316.83-3.52 313.41-7.28 313.41-15.21L313.41-15.21Q313.41-30.66 327.45-30.66L327.45-30.66Q329.5-30.66 331.43-30.24 333.36-29.81 334.56-29.17 335.75-28.54 335.75-27.95L335.75-27.95Q335.75-27.59 335.5-26.98 335.24-26.37 334.9-25.9 334.56-25.44 334.29-25.44L334.29-25.44Q334.17-25.44 333.61-25.76L333.61-25.76Q332.34-26.44 330.94-26.9 329.55-27.37 327.55-27.37L327.55-27.37Q322.3-27.37 319.82-24.45 317.35-21.53 317.35-15.16L317.35-15.16Q317.35-8.94 319.8-5.99 322.25-3.05 327.38-3.05L327.38-3.05Q329.53-3.05 331.07-3.56 332.6-4.08 334.02-4.83L334.02-4.83Q334.7-5.2 334.85-5.2L334.85-5.2Q335.12-5.2 335.47-4.74 335.83-4.27 336.1-3.7 336.36-3.13 336.36-2.88L336.36-2.88Q336.36-2.27 335.13-1.53 333.9-0.78 331.84-0.27 329.77 0.24 327.38 0.24L327.38 0.24ZM350.25 0.24Q345.35 0.24 342.77-2.7 340.19-5.64 340.19-11.25L340.19-11.25Q340.19-16.87 342.81-19.91 345.42-22.95 350.25-22.95L350.25-22.95Q355.04-22.95 357.58-19.93 360.12-16.92 360.12-11.25L360.12-11.25Q360.12-5.62 357.61-2.69 355.11 0.24 350.25 0.24L350.25 0.24ZM350.13-2.88Q353.3-2.88 354.82-4.94 356.33-7.01 356.33-11.33L356.33-11.33Q356.33-15.67 354.82-17.75 353.3-19.82 350.13-19.82L350.13-19.82Q346.98-19.82 345.49-17.76 344-15.7 344-11.33L344-11.33Q344-6.98 345.48-4.93 346.96-2.88 350.13-2.88L350.13-2.88ZM389.24-22.95Q391.95-22.95 394-21.41 396.05-19.87 396.05-15.94L396.05-15.94 396.05-0.88Q396.05-0.39 395.64-0.16 395.22 0.07 394.32 0.07L394.32 0.07 394.17 0.07Q393.24 0.07 392.83-0.16 392.41-0.39 392.41-0.88L392.41-0.88 392.41-15.58Q392.41-17.55 391.35-18.68 390.29-19.8 388.24-19.8L388.24-19.8Q386.53-19.8 385.15-18.81 383.77-17.82 382.92-16.75L382.92-16.75Q382.97-16.16 382.97-15.87L382.97-15.87 382.97-0.88Q382.97 0.07 381.21 0.07L381.21 0.07 381.04 0.07Q379.3 0.07 379.3-0.88L379.3-0.88 379.3-15.58Q379.3-17.55 378.24-18.68 377.18-19.8 375.13-19.8L375.13-19.8Q373.71-19.8 372.54-19.13 371.37-18.46 370.6-17.68 369.83-16.89 369.83-16.8L369.83-16.8 369.83-0.88Q369.83-0.39 369.43-0.16 369.02 0.07 368.12 0.07L368.12 0.07 367.93 0.07Q367.02 0.07 366.62-0.16 366.22-0.39 366.22-0.88L366.22-0.88 366.22-16.11Q366.22-18.95 365.95-20.2 365.68-21.46 365.68-21.58L365.68-21.58Q365.68-22.12 366.5-22.35 367.32-22.58 368.02-22.58L368.02-22.58Q368.63-22.58 368.93-21.92 369.22-21.26 369.35-20.58 369.49-19.9 369.54-19.7L369.54-19.7Q370.73-21.09 372.47-22.02 374.2-22.95 376.13-22.95L376.13-22.95Q378.11-22.95 379.82-22.16 381.52-21.36 382.33-19.36L382.33-19.36Q383.67-20.95 385.48-21.95 387.29-22.95 389.24-22.95L389.24-22.95ZM426.05-22.95Q428.76-22.95 430.81-21.41 432.87-19.87 432.87-15.94L432.87-15.94 432.87-0.88Q432.87-0.39 432.45-0.16 432.04 0.07 431.13 0.07L431.13 0.07 430.99 0.07Q430.06 0.07 429.64-0.16 429.23-0.39 429.23-0.88L429.23-0.88 429.23-15.58Q429.23-17.55 428.17-18.68 427.1-19.8 425.05-19.8L425.05-19.8Q423.34-19.8 421.96-18.81 420.58-17.82 419.73-16.75L419.73-16.75Q419.78-16.16 419.78-15.87L419.78-15.87 419.78-0.88Q419.78 0.07 418.02 0.07L418.02 0.07 417.85 0.07Q416.12 0.07 416.12-0.88L416.12-0.88 416.12-15.58Q416.12-17.55 415.06-18.68 413.99-19.8 411.94-19.8L411.94-19.8Q410.53-19.8 409.35-19.13 408.18-18.46 407.41-17.68 406.64-16.89 406.64-16.8L406.64-16.8 406.64-0.88Q406.64-0.39 406.24-0.16 405.84 0.07 404.94 0.07L404.94 0.07 404.74 0.07Q403.84 0.07 403.43-0.16 403.03-0.39 403.03-0.88L403.03-0.88 403.03-16.11Q403.03-18.95 402.76-20.2 402.49-21.46 402.49-21.58L402.49-21.58Q402.49-22.12 403.31-22.35 404.13-22.58 404.84-22.58L404.84-22.58Q405.45-22.58 405.74-21.92 406.03-21.26 406.17-20.58 406.3-19.9 406.35-19.7L406.35-19.7Q407.55-21.09 409.28-22.02 411.01-22.95 412.94-22.95L412.94-22.95Q414.92-22.95 416.63-22.16 418.34-21.36 419.14-19.36L419.14-19.36Q420.49-20.95 422.29-21.95 424.1-22.95 426.05-22.95L426.05-22.95ZM445.68 0.24Q442.36 0.24 440.31-1.39 438.26-3.03 438.26-6.25L438.26-6.25Q438.26-9.64 440.33-11.36 442.41-13.09 445.4-13.59 448.39-14.09 452.66-14.16L452.66-14.16 452.66-16.21Q452.66-17.85 451.55-18.84 450.44-19.82 447.9-19.82L447.9-19.82Q445.97-19.82 444.52-19.37 443.07-18.92 441.8-18.29L441.8-18.29Q441.26-18.02 441.14-18.02L441.14-18.02Q440.85-18.02 440.49-18.44 440.14-18.87 439.88-19.41 439.63-19.95 439.63-20.19L439.63-20.19Q439.63-20.75 440.79-21.41 441.94-22.07 443.82-22.51 445.7-22.95 447.76-22.95L447.76-22.95Q451.83-22.95 454.08-21.17 456.32-19.38 456.32-16.16L456.32-16.16 456.32-6.42Q456.32-3.59 456.58-2.33 456.84-1.07 456.84-0.95L456.84-0.95Q456.84-0.42 456.02-0.18 455.2 0.05 454.49 0.05L454.49 0.05Q453.91 0.05 453.63-0.61 453.35-1.27 453.08-2.51L453.08-2.51 452.98-3Q451.64-1.51 449.82-0.63 448 0.24 445.68 0.24L445.68 0.24ZM445.88-2.91Q448.02-2.91 449.54-3.69 451.05-4.47 452.66-5.91L452.66-5.91 452.66-11.04Q449.44-11.01 447.36-10.77 445.29-10.52 443.73-9.53 442.16-8.54 442.16-6.47L442.16-6.47Q442.16-4.74 443.1-3.82 444.04-2.91 445.88-2.91L445.88-2.91ZM465.28 0.07Q464.35 0.07 463.94-0.16 463.52-0.39 463.52-0.88L463.52-0.88 463.52-16.11Q463.52-18.95 463.26-20.2 462.99-21.46 462.99-21.58L462.99-21.58Q462.99-22.12 463.8-22.35 464.62-22.58 465.36-22.58L465.36-22.58Q465.97-22.58 466.26-21.92 466.55-21.26 466.69-20.58 466.82-19.9 466.87-19.7L466.87-19.7Q468.24-21.24 470.03-22.09 471.83-22.95 473.66-22.95L473.66-22.95Q476.98-22.95 478.84-21.08 480.71-19.21 480.71-15.94L480.71-15.94 480.71-0.88Q480.71-0.39 480.3-0.16 479.88 0.07 478.98 0.07L478.98 0.07 478.78 0.07Q477.9 0.07 477.49-0.16 477.07-0.39 477.07-0.88L477.07-0.88 477.07-15.58Q477.07-17.58 475.91-18.69 474.75-19.8 472.66-19.8L472.66-19.8Q471.19-19.8 469.71-18.98 468.24-18.16 467.16-16.75L467.16-16.75 467.16-0.88Q467.16-0.39 466.75-0.16 466.33 0.07 465.45 0.07L465.45 0.07 465.28 0.07ZM494.63 0.24Q492.09 0.24 490.18-1.23 488.28-2.71 487.24-5.35 486.2-7.98 486.2-11.33L486.2-11.33Q486.2-15.01 487.31-17.64 488.42-20.26 490.43-21.61 492.43-22.95 495.04-22.95L495.04-22.95Q496.92-22.95 498.37-22.39 499.83-21.83 501.24-20.75L501.24-20.75 501.24-31.69Q501.24-32.64 502.95-32.64L502.95-32.64 503.15-32.64Q504.88-32.64 504.88-31.69L504.88-31.69 504.88-6.42Q504.88-3.59 505.15-2.33 505.42-1.07 505.42-0.95L505.42-0.95Q505.42-0.42 504.6-0.18 503.78 0.05 503.07 0.05L503.07 0.05Q502.58 0.05 502.29-0.42 502-0.88 501.89-1.35 501.78-1.83 501.53-3L501.53-3Q498.43 0.24 494.63 0.24L494.63 0.24ZM495.38-2.91Q496.82-2.91 498.37-3.69 499.92-4.47 501.24-5.91L501.24-5.91 501.24-17.8Q498.9-19.75 495.89-19.75L495.89-19.75Q492.99-19.68 491.51-17.63 490.04-15.58 490.04-11.67L490.04-11.67Q490.04-7.47 491.41-5.19 492.79-2.91 495.38-2.91L495.38-2.91ZM524.33 0.07Q523.43 0.07 523.03-0.16 522.62-0.39 522.62-0.88L522.62-0.88 522.62-29.08Q522.62-29.79 522.93-30.08 523.23-30.37 523.92-30.37L523.92-30.37 532.71-30.37Q536.51-30.37 539.46-28.55 542.4-26.73 542.4-21.88L542.4-21.88Q542.4-18.26 540.71-16.27 539.03-14.28 536.93-13.61 534.83-12.94 533.15-12.94L533.15-12.94 526.41-12.94 526.41-0.88Q526.41-0.39 525.99-0.16 525.58 0.07 524.7 0.07L524.7 0.07 524.33 0.07ZM526.41-16.24L533.19-16.24Q534.29-16.24 535.49-16.71 536.69-17.19 537.56-18.44 538.44-19.7 538.44-21.88L538.44-21.88Q538.44-24.78 536.72-25.93 535-27.08 532.58-27.08L532.58-27.08 526.41-27.08 526.41-16.24ZM553.21 0.24Q549.89 0.24 547.84-1.39 545.79-3.03 545.79-6.25L545.79-6.25Q545.79-9.64 547.86-11.36 549.94-13.09 552.93-13.59 555.92-14.09 560.19-14.16L560.19-14.16 560.19-16.21Q560.19-17.85 559.08-18.84 557.97-19.82 555.43-19.82L555.43-19.82Q553.5-19.82 552.05-19.37 550.6-18.92 549.33-18.29L549.33-18.29Q548.79-18.02 548.67-18.02L548.67-18.02Q548.38-18.02 548.02-18.44 547.67-18.87 547.41-19.41 547.16-19.95 547.16-20.19L547.16-20.19Q547.16-20.75 548.32-21.41 549.48-22.07 551.36-22.51 553.24-22.95 555.29-22.95L555.29-22.95Q559.36-22.95 561.61-21.17 563.86-19.38 563.86-16.16L563.86-16.16 563.86-6.42Q563.86-3.59 564.11-2.33 564.37-1.07 564.37-0.95L564.37-0.95Q564.37-0.42 563.55-0.18 562.73 0.05 562.02 0.05L562.02 0.05Q561.44 0.05 561.16-0.61 560.88-1.27 560.61-2.51L560.61-2.51 560.51-3Q559.17-1.51 557.35-0.63 555.53 0.24 553.21 0.24L553.21 0.24ZM553.41-2.91Q555.56-2.91 557.07-3.69 558.58-4.47 560.19-5.91L560.19-5.91 560.19-11.04Q556.97-11.01 554.9-10.77 552.82-10.52 551.26-9.53 549.7-8.54 549.7-6.47L549.7-6.47Q549.7-4.74 550.64-3.82 551.58-2.91 553.41-2.91L553.41-2.91ZM575.74 0.42Q573.91 0.42 572.33-0.05 570.74-0.51 569.8-1.18 568.86-1.86 568.86-2.37L568.86-2.37Q568.86-2.61 569.11-3.15 569.37-3.69 569.73-4.11 570.08-4.54 570.37-4.54L570.37-4.54Q570.45-4.54 570.81-4.3L570.81-4.3Q571.79-3.66 572.87-3.22 573.96-2.78 575.47-2.78L575.47-2.78Q579.72-2.78 579.72-6.3L579.72-6.3Q579.72-7.3 579.32-7.98 578.92-8.67 577.98-9.19 577.04-9.72 575.4-10.21L575.4-10.21Q573.06-10.89 571.75-11.77 570.45-12.65 569.91-13.83 569.37-15.01 569.37-16.7L569.37-16.7Q569.37-18.51 570.29-19.95 571.2-21.39 572.85-22.19 574.5-23 576.57-23L576.57-23Q578.01-23 579.34-22.73 580.67-22.46 581.49-22.03 582.31-21.61 582.31-21.14L582.31-21.14Q582.31-20.8 582.08-20.23 581.85-19.65 581.5-19.23 581.16-18.8 580.89-18.8L580.89-18.8Q580.85-18.8 580.28-19.1 579.72-19.41 578.86-19.67 577.99-19.92 576.94-19.92L576.94-19.92Q575.28-19.92 574.19-19.18 573.11-18.43 573.11-17.19L573.11-17.19Q573.11-15.72 573.89-14.84 574.67-13.96 576.48-13.4L576.48-13.4Q579.26-12.55 580.72-11.69 582.19-10.84 582.81-9.61 583.43-8.37 583.43-6.37L583.43-6.37Q583.43-4.47 582.41-2.92 581.38-1.37 579.62-0.48 577.87 0.42 575.74 0.42L575.74 0.42ZM593.66 0.42Q591.83 0.42 590.24-0.05 588.66-0.51 587.72-1.18 586.78-1.86 586.78-2.37L586.78-2.37Q586.78-2.61 587.03-3.15 587.29-3.69 587.64-4.11 588-4.54 588.29-4.54L588.29-4.54Q588.36-4.54 588.73-4.3L588.73-4.3Q589.71-3.66 590.79-3.22 591.88-2.78 593.39-2.78L593.39-2.78Q597.64-2.78 597.64-6.3L597.64-6.3Q597.64-7.3 597.24-7.98 596.83-8.67 595.89-9.19 594.95-9.72 593.32-10.21L593.32-10.21Q590.98-10.89 589.67-11.77 588.36-12.65 587.83-13.83 587.29-15.01 587.29-16.7L587.29-16.7Q587.29-18.51 588.2-19.95 589.12-21.39 590.77-22.19 592.42-23 594.49-23L594.49-23Q595.93-23 597.26-22.73 598.59-22.46 599.41-22.03 600.23-21.61 600.23-21.14L600.23-21.14Q600.23-20.8 600-20.23 599.76-19.65 599.42-19.23 599.08-18.8 598.81-18.8L598.81-18.8Q598.76-18.8 598.2-19.1 597.64-19.41 596.77-19.67 595.91-19.92 594.86-19.92L594.86-19.92Q593.2-19.92 592.11-19.18 591.02-18.43 591.02-17.19L591.02-17.19Q591.02-15.72 591.81-14.84 592.59-13.96 594.39-13.4L594.39-13.4Q597.18-12.55 598.64-11.69 600.11-10.84 600.73-9.61 601.35-8.37 601.35-6.37L601.35-6.37Q601.35-4.47 600.33-2.92 599.3-1.37 597.54-0.48 595.78 0.42 593.66 0.42L593.66 0.42ZM612.14 0.07Q610.55 0.07 610.41-0.61L610.41-0.61 604.69-21.19Q604.45-21.88 604.45-22.05L604.45-22.05Q604.45-22.78 606.45-22.78L606.45-22.78Q608.01-22.78 608.18-22.09L608.18-22.09 611.85-8.2Q611.94-7.86 612.48-5.42L612.48-5.42Q612.6-4.76 612.95-3.25L612.95-3.25Q613.43-6.25 614.02-8.25L614.02-8.25 617.61-22.05Q617.78-22.78 619.32-22.78L619.32-22.78 619.61-22.78Q621.1-22.78 621.32-22.05L621.32-22.05 624.93-8.25Q625.52-6.1 625.91-4.03L625.91-4.03Q625.93-3.88 626.03-3.3L626.03-3.3Q626.71-6.91 627.03-8.15L627.03-8.15 630.69-22.09Q630.87-22.78 632.45-22.78L632.45-22.78Q634.19-22.78 634.19-22.05L634.19-22.05Q634.19-21.78 634.06-21.46L634.06-21.46 628.23-0.61Q628.08 0.07 626.52 0.07L626.52 0.07 625.2 0.07Q623.66 0.07 623.52-0.61L623.52-0.61 620.03-14.38Q619.71-15.72 619.39-17.75L619.39-17.75Q619.07-15.63 618.73-14.4L618.73-14.4 615.19-0.61Q615.04 0.07 613.43 0.07L613.43 0.07 612.14 0.07ZM648.03 0.24Q643.12 0.24 640.54-2.7 637.97-5.64 637.97-11.25L637.97-11.25Q637.97-16.87 640.58-19.91 643.19-22.95 648.03-22.95L648.03-22.95Q652.81-22.95 655.35-19.93 657.89-16.92 657.89-11.25L657.89-11.25Q657.89-5.62 655.39-2.69 652.88 0.24 648.03 0.24L648.03 0.24ZM647.9-2.88Q651.08-2.88 652.59-4.94 654.1-7.01 654.1-11.33L654.1-11.33Q654.1-15.67 652.59-17.75 651.08-19.82 647.9-19.82L647.9-19.82Q644.75-19.82 643.26-17.76 641.78-15.7 641.78-11.33L641.78-11.33Q641.78-6.98 643.25-4.93 644.73-2.88 647.9-2.88L647.9-2.88ZM665.94 0.07Q665.02 0.07 664.6-0.16 664.19-0.39 664.19-0.88L664.19-0.88 664.19-16.11Q664.19-18.95 663.92-20.2 663.65-21.46 663.65-21.58L663.65-21.58Q663.65-22.12 664.47-22.35 665.28-22.58 666.02-22.58L666.02-22.58Q666.6-22.58 666.9-21.96 667.19-21.34 667.41-20.21L667.41-20.21 667.53-19.7Q669.85-22.95 672.56-22.95L672.56-22.95Q673.8-22.95 674.44-22.5 675.07-22.05 675.07-21.29L675.07-21.29Q675.07-20.56 674.82-19.74 674.56-18.92 674.22-18.92L674.22-18.92Q674.05-18.92 673.61-19.07L673.61-19.07Q673.22-19.24 672.83-19.32 672.44-19.41 671.83-19.41L671.83-19.41Q670.83-19.41 669.93-18.82 669.04-18.24 668.43-17.53 667.82-16.82 667.82-16.75L667.82-16.75 667.82-0.88Q667.82-0.39 667.41-0.16 666.99 0.07 666.11 0.07L666.11 0.07 665.94 0.07ZM686.81 0.24Q684.28 0.24 682.37-1.23 680.47-2.71 679.43-5.35 678.39-7.98 678.39-11.33L678.39-11.33Q678.39-15.01 679.5-17.64 680.61-20.26 682.62-21.61 684.62-22.95 687.23-22.95L687.23-22.95Q689.11-22.95 690.56-22.39 692.01-21.83 693.43-20.75L693.43-20.75 693.43-31.69Q693.43-32.64 695.14-32.64L695.14-32.64 695.34-32.64Q697.07-32.64 697.07-31.69L697.07-31.69 697.07-6.42Q697.07-3.59 697.34-2.33 697.61-1.07 697.61-0.95L697.61-0.95Q697.61-0.42 696.79-0.18 695.97 0.05 695.26 0.05L695.26 0.05Q694.77 0.05 694.48-0.42 694.19-0.88 694.08-1.35 693.97-1.83 693.72-3L693.72-3Q690.62 0.24 686.81 0.24L686.81 0.24ZM687.57-2.91Q689.01-2.91 690.56-3.69 692.11-4.47 693.43-5.91L693.43-5.91 693.43-17.8Q691.09-19.75 688.08-19.75L688.08-19.75Q685.18-19.68 683.7-17.63 682.22-15.58 682.22-11.67L682.22-11.67Q682.22-7.47 683.6-5.19 684.98-2.91 687.57-2.91L687.57-2.91ZM709.1 0.42Q707.27 0.42 705.68-0.05 704.1-0.51 703.16-1.18 702.22-1.86 702.22-2.37L702.22-2.37Q702.22-2.61 702.47-3.15 702.73-3.69 703.08-4.11 703.44-4.54 703.73-4.54L703.73-4.54Q703.8-4.54 704.17-4.3L704.17-4.3Q705.15-3.66 706.23-3.22 707.32-2.78 708.83-2.78L708.83-2.78Q713.08-2.78 713.08-6.3L713.08-6.3Q713.08-7.3 712.68-7.98 712.28-8.67 711.34-9.19 710.4-9.72 708.76-10.21L708.76-10.21Q706.42-10.89 705.11-11.77 703.8-12.65 703.27-13.83 702.73-15.01 702.73-16.7L702.73-16.7Q702.73-18.51 703.65-19.95 704.56-21.39 706.21-22.19 707.86-23 709.93-23L709.93-23Q711.37-23 712.7-22.73 714.03-22.46 714.85-22.03 715.67-21.61 715.67-21.14L715.67-21.14Q715.67-20.8 715.44-20.23 715.21-19.65 714.86-19.23 714.52-18.8 714.25-18.8L714.25-18.8Q714.2-18.8 713.64-19.1 713.08-19.41 712.21-19.67 711.35-19.92 710.3-19.92L710.3-19.92Q708.64-19.92 707.55-19.18 706.47-18.43 706.47-17.19L706.47-17.19Q706.47-15.72 707.25-14.84 708.03-13.96 709.83-13.4L709.83-13.4Q712.62-12.55 714.08-11.69 715.55-10.84 716.17-9.61 716.79-8.37 716.79-6.37L716.79-6.37Q716.79-4.47 715.77-2.92 714.74-1.37 712.98-0.48 711.23 0.42 709.1 0.42L709.1 0.42ZM738 0.07Q736.42 0.07 736.27-0.61L736.27-0.61 730.56-21.19Q730.31-21.88 730.31-22.05L730.31-22.05Q730.31-22.78 732.31-22.78L732.31-22.78Q733.88-22.78 734.05-22.09L734.05-22.09 737.71-8.2Q737.81-7.86 738.35-5.42L738.35-5.42Q738.47-4.76 738.81-3.25L738.81-3.25Q739.3-6.25 739.88-8.25L739.88-8.25 743.47-22.05Q743.64-22.78 745.18-22.78L745.18-22.78 745.47-22.78Q746.96-22.78 747.18-22.05L747.18-22.05 750.8-8.25Q751.38-6.1 751.77-4.03L751.77-4.03Q751.8-3.88 751.9-3.3L751.9-3.3Q752.58-6.91 752.9-8.15L752.9-8.15 756.56-22.09Q756.73-22.78 758.32-22.78L758.32-22.78Q760.05-22.78 760.05-22.05L760.05-22.05Q760.05-21.78 759.93-21.46L759.93-21.46 754.09-0.61Q753.95 0.07 752.38 0.07L752.38 0.07 751.06 0.07Q749.53 0.07 749.38-0.61L749.38-0.61 745.89-14.38Q745.57-15.72 745.25-17.75L745.25-17.75Q744.94-15.63 744.6-14.4L744.6-14.4 741.06-0.61Q740.91 0.07 739.3 0.07L739.3 0.07 738 0.07ZM766.96-28.17Q765.22-28.17 765.22-29.13L765.22-29.13 765.22-31.69Q765.22-32.64 766.96-32.64L766.96-32.64 767.47-32.64Q769.23-32.64 769.23-31.69L769.23-31.69 769.23-29.13Q769.23-28.17 767.47-28.17L767.47-28.17 766.96-28.17ZM767.13 0.07Q765.39 0.07 765.39-0.88L765.39-0.88 765.39-21.83Q765.39-22.78 767.13-22.78L767.13-22.78 767.3-22.78Q769.06-22.78 769.06-21.83L769.06-21.83 769.06-0.88Q769.06 0.07 767.3 0.07L767.3 0.07 767.13 0.07ZM783.19 0.24Q781.02 0.24 779.31-1.07 777.6-2.39 777.6-5.74L777.6-5.74 777.6-19.58 775.43-19.58Q774.96-19.58 774.75-19.89 774.55-20.19 774.55-20.87L774.55-20.87 774.55-21.41Q774.55-22.09 774.75-22.4 774.96-22.71 775.43-22.71L775.43-22.71 777.6-22.71 778.11-27.25Q778.16-28.2 779.5-28.2L779.5-28.2 779.92-28.2Q780.6-28.2 780.92-27.97 781.24-27.73 781.24-27.25L781.24-27.25 781.24-22.71 784.87-22.71Q785.34-22.71 785.54-22.4 785.75-22.09 785.75-21.41L785.75-21.41 785.75-20.87Q785.75-20.19 785.54-19.89 785.34-19.58 784.87-19.58L784.87-19.58 781.24-19.58 781.24-6.08Q781.24-4.3 781.86-3.59 782.48-2.88 783.56-2.88L783.56-2.88Q784.39-2.88 784.84-2.98 785.29-3.08 785.43-3.08L785.43-3.08Q785.83-3.08 786.08-2.29 786.34-1.51 786.34-1.05L786.34-1.05Q786.34 0.24 783.19 0.24L783.19 0.24ZM793.54 0.07Q791.8 0.07 791.8-0.88L791.8-0.88 791.8-31.69Q791.8-32.64 793.54-32.64L793.54-32.64 793.71-32.64Q795.47-32.64 795.47-31.69L795.47-31.69 795.47-19.97Q796.74-21.26 798.45-22.11 800.15-22.95 802.08-22.95L802.08-22.95Q804.82-22.95 806.9-21.41 808.99-19.87 808.99-15.94L808.99-15.94 808.99-0.88Q808.99 0.07 807.26 0.07L807.26 0.07 807.09 0.07Q805.33 0.07 805.33-0.88L805.33-0.88 805.33-15.58Q805.33-17.55 804.21-18.68 803.08-19.8 800.91-19.8L800.91-19.8Q799.47-19.8 798.26-19.12 797.05-18.43 796.26-17.64 795.47-16.85 795.47-16.75L795.47-16.75 795.47-0.88Q795.47 0.07 793.71 0.07L793.71 0.07 793.54 0.07ZM828.18 0.07Q827.27 0.07 826.87-0.16 826.47-0.39 826.47-0.88L826.47-0.88 826.47-29.08Q826.47-29.79 826.77-30.08 827.08-30.37 827.76-30.37L827.76-30.37 836.55-30.37Q840.36-30.37 843.3-28.55 846.24-26.73 846.24-21.88L846.24-21.88Q846.24-18.26 844.56-16.27 842.87-14.28 840.77-13.61 838.67-12.94 836.99-12.94L836.99-12.94 830.25-12.94 830.25-0.88Q830.25-0.39 829.84-0.16 829.42 0.07 828.54 0.07L828.54 0.07 828.18 0.07ZM830.25-16.24L837.04-16.24Q838.14-16.24 839.33-16.71 840.53-17.19 841.41-18.44 842.29-19.7 842.29-21.88L842.29-21.88Q842.29-24.78 840.57-25.93 838.85-27.08 836.43-27.08L836.43-27.08 830.25-27.08 830.25-16.24ZM857.06 0.24Q853.74 0.24 851.68-1.39 849.63-3.03 849.63-6.25L849.63-6.25Q849.63-9.64 851.71-11.36 853.78-13.09 856.78-13.59 859.77-14.09 864.04-14.16L864.04-14.16 864.04-16.21Q864.04-17.85 862.93-18.84 861.82-19.82 859.28-19.82L859.28-19.82Q857.35-19.82 855.9-19.37 854.44-18.92 853.17-18.29L853.17-18.29Q852.64-18.02 852.51-18.02L852.51-18.02Q852.22-18.02 851.87-18.44 851.51-18.87 851.26-19.41 851-19.95 851-20.19L851-20.19Q851-20.75 852.16-21.41 853.32-22.07 855.2-22.51 857.08-22.95 859.13-22.95L859.13-22.95Q863.21-22.95 865.45-21.17 867.7-19.38 867.7-16.16L867.7-16.16 867.7-6.42Q867.7-3.59 867.96-2.33 868.21-1.07 868.21-0.95L868.21-0.95Q868.21-0.42 867.4-0.18 866.58 0.05 865.87 0.05L865.87 0.05Q865.28 0.05 865-0.61 864.72-1.27 864.45-2.51L864.45-2.51 864.36-3Q863.01-1.51 861.19-0.63 859.38 0.24 857.06 0.24L857.06 0.24ZM857.25-2.91Q859.4-2.91 860.91-3.69 862.43-4.47 864.04-5.91L864.04-5.91 864.04-11.04Q860.82-11.01 858.74-10.77 856.67-10.52 855.1-9.53 853.54-8.54 853.54-6.47L853.54-6.47Q853.54-4.74 854.48-3.82 855.42-2.91 857.25-2.91L857.25-2.91ZM879.59 0.42Q877.76 0.42 876.17-0.05 874.58-0.51 873.64-1.18 872.7-1.86 872.7-2.37L872.7-2.37Q872.7-2.61 872.96-3.15 873.22-3.69 873.57-4.11 873.92-4.54 874.22-4.54L874.22-4.54Q874.29-4.54 874.66-4.3L874.66-4.3Q875.63-3.66 876.72-3.22 877.81-2.78 879.32-2.78L879.32-2.78Q883.57-2.78 883.57-6.3L883.57-6.3Q883.57-7.3 883.16-7.98 882.76-8.67 881.82-9.19 880.88-9.72 879.25-10.21L879.25-10.21Q876.9-10.89 875.6-11.77 874.29-12.65 873.75-13.83 873.22-15.01 873.22-16.7L873.22-16.7Q873.22-18.51 874.13-19.95 875.05-21.39 876.69-22.19 878.34-23 880.42-23L880.42-23Q881.86-23 883.19-22.73 884.52-22.46 885.34-22.03 886.15-21.61 886.15-21.14L886.15-21.14Q886.15-20.8 885.92-20.23 885.69-19.65 885.35-19.23 885.01-18.8 884.74-18.8L884.74-18.8Q884.69-18.8 884.13-19.1 883.57-19.41 882.7-19.67 881.83-19.92 880.78-19.92L880.78-19.92Q879.12-19.92 878.04-19.18 876.95-18.43 876.95-17.19L876.95-17.19Q876.95-15.72 877.73-14.84 878.51-13.96 880.32-13.4L880.32-13.4Q883.1-12.55 884.57-11.69 886.03-10.84 886.66-9.61 887.28-8.37 887.28-6.37L887.28-6.37Q887.28-4.47 886.25-2.92 885.23-1.37 883.47-0.48 881.71 0.42 879.59 0.42L879.59 0.42ZM897.5 0.42Q895.67 0.42 894.09-0.05 892.5-0.51 891.56-1.18 890.62-1.86 890.62-2.37L890.62-2.37Q890.62-2.61 890.88-3.15 891.13-3.69 891.49-4.11 891.84-4.54 892.13-4.54L892.13-4.54Q892.21-4.54 892.57-4.3L892.57-4.3Q893.55-3.66 894.64-3.22 895.72-2.78 897.24-2.78L897.24-2.78Q901.48-2.78 901.48-6.3L901.48-6.3Q901.48-7.3 901.08-7.98 900.68-8.67 899.74-9.19 898.8-9.72 897.16-10.21L897.16-10.21Q894.82-10.89 893.51-11.77 892.21-12.65 891.67-13.83 891.13-15.01 891.13-16.7L891.13-16.7Q891.13-18.51 892.05-19.95 892.96-21.39 894.61-22.19 896.26-23 898.33-23L898.33-23Q899.78-23 901.11-22.73 902.44-22.46 903.25-22.03 904.07-21.61 904.07-21.14L904.07-21.14Q904.07-20.8 903.84-20.23 903.61-19.65 903.27-19.23 902.92-18.8 902.66-18.8L902.66-18.8Q902.61-18.8 902.05-19.1 901.48-19.41 900.62-19.67 899.75-19.92 898.7-19.92L898.7-19.92Q897.04-19.92 895.95-19.18 894.87-18.43 894.87-17.19L894.87-17.19Q894.87-15.72 895.65-14.84 896.43-13.96 898.24-13.4L898.24-13.4Q901.02-12.55 902.49-11.69 903.95-10.84 904.57-9.61 905.2-8.37 905.2-6.37L905.2-6.37Q905.2-4.47 904.17-2.92 903.14-1.37 901.39-0.48 899.63 0.42 897.5 0.42L897.5 0.42ZM918.82 0.07Q917.91 0.07 917.5-0.16 917.08-0.39 917.08-0.88L917.08-0.88 917.08-27.08 908.73-27.08Q908.27-27.08 908.07-27.39 907.88-27.71 907.88-28.37L907.88-28.37 907.88-29.08Q907.88-29.76 908.07-30.07 908.27-30.37 908.73-30.37L908.73-30.37 929.09-30.37Q929.56-30.37 929.75-30.07 929.95-29.76 929.95-29.08L929.95-29.08 929.95-28.37Q929.95-27.71 929.75-27.39 929.56-27.08 929.09-27.08L929.09-27.08 920.92-27.08 920.92-0.88Q920.92 0.07 919.16 0.07L919.16 0.07 918.82 0.07ZM936.34-28.17Q934.61-28.17 934.61-29.13L934.61-29.13 934.61-31.69Q934.61-32.64 936.34-32.64L936.34-32.64 936.86-32.64Q938.61-32.64 938.61-31.69L938.61-31.69 938.61-29.13Q938.61-28.17 936.86-28.17L936.86-28.17 936.34-28.17ZM936.51 0.07Q934.78 0.07 934.78-0.88L934.78-0.88 934.78-21.83Q934.78-22.78 936.51-22.78L936.51-22.78 936.68-22.78Q938.44-22.78 938.44-21.83L938.44-21.83 938.44-0.88Q938.44 0.07 936.68 0.07L936.68 0.07 936.51 0.07ZM952.58 0.24Q950.4 0.24 948.69-1.07 946.98-2.39 946.98-5.74L946.98-5.74 946.98-19.58 944.81-19.58Q944.35-19.58 944.14-19.89 943.93-20.19 943.93-20.87L943.93-20.87 943.93-21.41Q943.93-22.09 944.14-22.4 944.35-22.71 944.81-22.71L944.81-22.71 946.98-22.71 947.5-27.25Q947.55-28.2 948.89-28.2L948.89-28.2 949.3-28.2Q949.99-28.2 950.31-27.97 950.62-27.73 950.62-27.25L950.62-27.25 950.62-22.71 954.26-22.71Q954.72-22.71 954.93-22.4 955.14-22.09 955.14-21.41L955.14-21.41 955.14-20.87Q955.14-20.19 954.93-19.89 954.72-19.58 954.26-19.58L954.26-19.58 950.62-19.58 950.62-6.08Q950.62-4.3 951.24-3.59 951.87-2.88 952.94-2.88L952.94-2.88Q953.77-2.88 954.22-2.98 954.68-3.08 954.82-3.08L954.82-3.08Q955.21-3.08 955.47-2.29 955.72-1.51 955.72-1.05L955.72-1.05Q955.72 0.24 952.58 0.24L952.58 0.24ZM966.73 0.24Q963.41 0.24 961.36-1.39 959.31-3.03 959.31-6.25L959.31-6.25Q959.31-9.64 961.39-11.36 963.46-13.09 966.45-13.59 969.44-14.09 973.72-14.16L973.72-14.16 973.72-16.21Q973.72-17.85 972.6-18.84 971.49-19.82 968.95-19.82L968.95-19.82Q967.03-19.82 965.57-19.37 964.12-18.92 962.85-18.29L962.85-18.29Q962.31-18.02 962.19-18.02L962.19-18.02Q961.9-18.02 961.55-18.44 961.19-18.87 960.93-19.41 960.68-19.95 960.68-20.19L960.68-20.19Q960.68-20.75 961.84-21.41 963-22.07 964.88-22.51 966.76-22.95 968.81-22.95L968.81-22.95Q972.89-22.95 975.13-21.17 977.38-19.38 977.38-16.16L977.38-16.16 977.38-6.42Q977.38-3.59 977.63-2.33 977.89-1.07 977.89-0.95L977.89-0.95Q977.89-0.42 977.07-0.18 976.25 0.05 975.55 0.05L975.55 0.05Q974.96 0.05 974.68-0.61 974.4-1.27 974.13-2.51L974.13-2.51 974.03-3Q972.69-1.51 970.87-0.63 969.05 0.24 966.73 0.24L966.73 0.24ZM966.93-2.91Q969.08-2.91 970.59-3.69 972.1-4.47 973.72-5.91L973.72-5.91 973.72-11.04Q970.49-11.01 968.42-10.77 966.34-10.52 964.78-9.53 963.22-8.54 963.22-6.47L963.22-6.47Q963.22-4.74 964.16-3.82 965.1-2.91 966.93-2.91L966.93-2.91ZM986.34 0.07Q985.41 0.07 984.99-0.16 984.58-0.39 984.58-0.88L984.58-0.88 984.58-16.11Q984.58-18.95 984.31-20.2 984.04-21.46 984.04-21.58L984.04-21.58Q984.04-22.12 984.86-22.35 985.68-22.58 986.41-22.58L986.41-22.58Q987.02-22.58 987.31-21.92 987.6-21.26 987.74-20.58 987.87-19.9 987.92-19.7L987.92-19.7Q989.29-21.24 991.08-22.09 992.88-22.95 994.71-22.95L994.71-22.95Q998.03-22.95 999.9-21.08 1001.76-19.21 1001.76-15.94L1001.76-15.94 1001.76-0.88Q1001.76-0.39 1001.35-0.16 1000.93 0.07 1000.03 0.07L1000.03 0.07 999.84 0.07Q998.96 0.07 998.54-0.16 998.13-0.39 998.13-0.88L998.13-0.88 998.13-15.58Q998.13-17.58 996.97-18.69 995.81-19.8 993.71-19.8L993.71-19.8Q992.24-19.8 990.77-18.98 989.29-18.16 988.22-16.75L988.22-16.75 988.22-0.88Q988.22-0.39 987.8-0.16 987.38 0.07 986.51 0.07L986.51 0.07 986.34 0.07Z" opacity="1" transform="matrix(1,0,0,1,0,0)" fill="#ffffff" class="slogan-text-1" data-fill-palette-color="secondary" id="text-1"></path></svg></g></svg></g></svg></g></svg></g><g transform="matrix(1,0,0,1,429.89094733703536,0)"><svg viewBox="0 0 228.86818097212043 228.86818097212043" height="228.86818097212043" width="228.86818097212043"><g><svg></svg></g><g id="icon-0"><svg viewBox="0 0 228.86818097212043 228.86818097212043" height="228.86818097212043" width="228.86818097212043"><g><path d="M0 114.434c0-63.2 51.234-114.434 114.434-114.434 63.2 0 114.434 51.234 114.434 114.434 0 63.2-51.234 114.434-114.434 114.434-63.2 0-114.434-51.234-114.434-114.434zM114.434 222.303c59.575 0 107.869-48.295 107.869-107.869 0-59.575-48.295-107.869-107.869-107.869-59.575 0-107.869 48.295-107.869 107.869 0 59.575 48.295 107.869 107.869 107.869z" data-fill-palette-color="tertiary" fill="#ffffff" stroke="transparent"></path></g><g transform="matrix(1,0,0,1,63.520214277384525,46.80097333210884)"><svg viewBox="0 0 101.82775241735138 135.26623430790275" height="135.26623430790275" width="101.82775241735138"><g><svg xmlns="http://www.w3.org/2000/svg" xmlns:xlink="http://www.w3.org/1999/xlink" version="1.1" x="0" y="0" viewBox="12.358 0.0020000000000024443 75.27799999999999 99.99799999999999" enable-background="new 0 0 100 100" xml:space="preserve" height="135.26623430790275" width="101.82775241735138" class="icon-z$-0" data-fill-palette-color="accent" id="z$-0"><path fill="#ffffff" d="M81.097 38.886h6.539L87.632 100H12.358l0.004-61.114h18.532 38.166M35.556 57.844l-3.291 5.642 10.271 5.962-10.271 5.919 3.291 5.678L45.8 75.153v11.843h6.583V75.153l10.271 5.891 3.291-5.678-10.271-5.919 10.271-5.962-3.291-5.642L52.41 63.735V51.893H45.8v11.843L35.556 57.844z" data-fill-palette-color="accent"></path><path fill="#ffffff" d="M81.097 50.879H69.104V31.033c0-10.498-8.569-19.038-19.106-19.038s-19.106 8.54-19.106 19.038v19.846H18.897V31.033c0-17.111 13.953-31.031 31.1-31.031s31.1 13.92 31.1 31.031V50.879z" data-fill-palette-color="accent"></path></svg></g></svg></g></svg></g></svg></g></svg></g><defs></defs></svg><rect width="395.5199999999999" height="137.4128100060438" fill="none" stroke="none" visibility="hidden"></rect></g></svg></g></svg>